<svg xmlns="http://www.w3.org/2000/svg" width="64" height="64" viewBox="0 0 64 64" fill="none">
  <rect width="64" height="64" rx="16" fill="#F7FBFA"/>
  <path d="M18 42C21 38 22.5 34.5 23 29.5" stroke="#D9A44A" stroke-width="3.2" stroke-linecap="round"/>
  <path d="M46 42C43 38 41.5 34.5 41 29.5" stroke="#D9A44A" stroke-width="3.2" stroke-linecap="round"/>
  <path d="M24 43.5C27 35.5 29.5 28.5 32 21.5C34.5 28.5 37 35.5 40 43.5" stroke="#0E6F73" stroke-width="3.5" stroke-linecap="round" stroke-linejoin="round"/>
  <path d="M32 17C34.6 13.6 39.2 11.7 42.8 13.4C41.5 17.6 38.7 20.4 34.2 21.1" stroke="#D9A44A" stroke-width="3.2" stroke-linecap="round" stroke-linejoin="round"/>
  <path d="M32 17C29.4 13.6 24.8 11.7 21.2 13.4C22.5 17.6 25.3 20.4 29.8 21.1" stroke="#0E6F73" stroke-width="3.2" stroke-linecap="round" stroke-linejoin="round"/>
  <path d="M32 33C34.8 28.5 39.5 26.7 44 28.2C42 33.5 38.2 36.2 32 36.5" stroke="#0E6F73" stroke-width="3" stroke-linecap="round" stroke-linejoin="round"/>
  <path d="M32 33C29.2 28.5 24.5 26.7 20 28.2C22 33.5 25.8 36.2 32 36.5" stroke="#0E6F73" stroke-width="3" stroke-linecap="round" stroke-linejoin="round"/>
</svg>
