<svg xmlns="http://www.w3.org/2000/svg" width="620" height="420" viewBox="0 0 620 420" fill="none">
  <rect width="620" height="420" rx="36" fill="url(#bg)"/>
  <circle cx="526" cy="84" r="78" fill="rgba(255,255,255,.06)"/>
  <circle cx="104" cy="334" r="100" fill="rgba(255,255,255,.06)"/>
  <rect x="72" y="66" width="476" height="288" rx="28" fill="rgba(255,255,255,.12)" stroke="rgba(255,255,255,.22)"/>
  <rect x="106" y="108" width="156" height="156" rx="24" fill="#F8FBFA"/>
  <path d="M152 220C160 196 167 176 184 144C201 176 208 196 216 220" stroke="#0E6F73" stroke-width="9" stroke-linecap="round" stroke-linejoin="round"/>
  <path d="M122 214C130 202 134 191 136 177" stroke="#D9A44A" stroke-width="8" stroke-linecap="round"/>
  <path d="M246 214C238 202 234 191 232 177" stroke="#D9A44A" stroke-width="8" stroke-linecap="round"/>
  <path d="M184 126C193 115 209 109 221 114C217 128 208 137 193 141" stroke="#D9A44A" stroke-width="8" stroke-linecap="round" stroke-linejoin="round"/>
  <path d="M184 126C175 115 159 109 147 114C151 128 160 137 175 141" stroke="#0E6F73" stroke-width="8" stroke-linecap="round" stroke-linejoin="round"/>
  <text x="326" y="148" fill="#ffffff" font-size="38" font-family="Segoe UI, Arial" font-weight="800">Joud Charity</text>
  <text x="326" y="186" fill="rgba(255,255,255,.88)" font-size="20" font-family="Segoe UI, Arial">Digital platform for charity operations, projects,</text>
  <text x="326" y="214" fill="rgba(255,255,255,.88)" font-size="20" font-family="Segoe UI, Arial">beneficiaries, governance, and reporting.</text>
  <rect x="326" y="244" width="166" height="18" rx="9" fill="rgba(255,255,255,.16)"/>
  <rect x="326" y="278" width="128" height="14" rx="7" fill="rgba(255,255,255,.14)"/>
  <rect x="326" y="308" width="196" height="14" rx="7" fill="rgba(255,255,255,.14)"/>
  <defs>
    <linearGradient id="bg" x1="0" y1="0" x2="620" y2="420" gradientUnits="userSpaceOnUse">
      <stop stop-color="#0E6F73"/>
      <stop offset="1" stop-color="#15989E"/>
    </linearGradient>
  </defs>
</svg>
